<?xml version="1.0" encoding="UTF-8"?>
<svg xmlns="http://www.w3.org/2000/svg" viewBox="0 0 1200 640" width="1200" height="640" role="img" aria-label="memory-spark chart">
  <defs>
    <style>
      text { font-family: -apple-system, BlinkMacSystemFont, 'Segoe UI', sans-serif; }
    </style>
  </defs>
  <rect x="0" y="0" width="1200" height="640" fill="#0d1117"/>
  <rect x="12" y="12" width="1176" height="616" rx="12" fill="#161b22" stroke="#30363d"/>
  
    <text x="40" y="58" fill="#c9d1d9" font-size="30" font-weight="700">Ablation Study: NDCG@10 by Component</text>
    <text x="40" y="84" fill="#8b949e" font-size="16">Full pipeline vs component removals</text>
    
        <line x1="270" x2="270" y1="70" y2="600" stroke="#30363d" stroke-width="1"/>
        <text x="270" y="624" text-anchor="middle" fill="#8b949e" font-size="14">0.0</text>
      

        <line x1="446" x2="446" y1="70" y2="600" stroke="#30363d" stroke-width="1"/>
        <text x="446" y="624" text-anchor="middle" fill="#8b949e" font-size="14">0.2</text>
      

        <line x1="622" x2="622" y1="70" y2="600" stroke="#30363d" stroke-width="1"/>
        <text x="622" y="624" text-anchor="middle" fill="#8b949e" font-size="14">0.4</text>
      

        <line x1="798" x2="798" y1="70" y2="600" stroke="#30363d" stroke-width="1"/>
        <text x="798" y="624" text-anchor="middle" fill="#8b949e" font-size="14">0.6</text>
      

        <line x1="974" x2="974" y1="70" y2="600" stroke="#30363d" stroke-width="1"/>
        <text x="974" y="624" text-anchor="middle" fill="#8b949e" font-size="14">0.8</text>
      

        <line x1="1150" x2="1150" y1="70" y2="600" stroke="#30363d" stroke-width="1"/>
        <text x="1150" y="624" text-anchor="middle" fill="#8b949e" font-size="14">1.0</text>
      
    
        <text x="256" y="117.72" fill="#c9d1d9" text-anchor="end" font-size="20">Full Pipeline</text>
        <rect x="270" y="90" width="782.75" height="42" rx="6" fill="#3fb950" opacity="0.9"/>
        <text x="1062.75" y="117.72" fill="#c9d1d9" font-size="18">0.889</text>
      

        <text x="256" y="177.72" fill="#c9d1d9" text-anchor="end" font-size="20">- Rerank</text>
        <rect x="270" y="150" width="710.84" height="42" rx="6" fill="#58a6ff" opacity="0.9"/>
        <text x="990.84" y="177.72" fill="#c9d1d9" font-size="18">0.808</text>
      

        <text x="256" y="237.72" fill="#c9d1d9" text-anchor="end" font-size="20">- Temporal Decay</text>
        <rect x="270" y="210" width="637.23" height="42" rx="6" fill="#58a6ff" opacity="0.9"/>
        <text x="917.23" y="237.72" fill="#c9d1d9" font-size="18">0.724</text>
      

        <text x="256" y="297.72" fill="#c9d1d9" text-anchor="end" font-size="20">- Hybrid FTS</text>
        <rect x="270" y="270" width="704.89" height="42" rx="6" fill="#58a6ff" opacity="0.9"/>
        <text x="984.89" y="297.72" fill="#c9d1d9" font-size="18">0.801</text>
      

        <text x="256" y="357.72" fill="#c9d1d9" text-anchor="end" font-size="20">- Quality Filter</text>
        <rect x="270" y="330" width="710.63" height="42" rx="6" fill="#58a6ff" opacity="0.9"/>
        <text x="990.63" y="357.72" fill="#c9d1d9" font-size="18">0.808</text>
      

        <text x="256" y="417.72" fill="#c9d1d9" text-anchor="end" font-size="20">- Contextual Prefix</text>
        <rect x="270" y="390" width="723.02" height="42" rx="6" fill="#58a6ff" opacity="0.9"/>
        <text x="1003.02" y="417.72" fill="#c9d1d9" font-size="18">0.822</text>
      

        <text x="256" y="477.72" fill="#c9d1d9" text-anchor="end" font-size="20">- Mistake Weighting</text>
        <rect x="270" y="450" width="732.12" height="42" rx="6" fill="#58a6ff" opacity="0.9"/>
        <text x="1012.12" y="477.72" fill="#c9d1d9" font-size="18">0.832</text>
      

        <text x="256" y="537.72" fill="#c9d1d9" text-anchor="end" font-size="20">Vanilla Retrieval</text>
        <rect x="270" y="510" width="293.54" height="42" rx="6" fill="#f85149" opacity="0.9"/>
        <text x="573.54" y="537.72" fill="#c9d1d9" font-size="18">0.334</text>
      
    
</svg>