<?xml version="1.0" encoding="UTF-8"?>
<svg xmlns="http://www.w3.org/2000/svg" viewBox="0 0 1200 868" width="1200" height="868" role="img" aria-label="memory-spark chart">
  <defs><style>text { font-family: -apple-system, BlinkMacSystemFont, 'Segoe UI', sans-serif; }</style></defs>
  <rect width="1200" height="868" fill="#0d1117"/>
  <rect x="10" y="10" width="1180" height="848" rx="12" fill="#161b22" stroke="#30363d"/>
  <text x="40" y="48" fill="#c9d1d9" font-size="24" font-weight="700">BEIR SciFact — Mean Query Latency</text>
  <text x="40" y="70" fill="#8b949e" font-size="14">Lower is better. Green &lt; 800ms, Yellow &lt; 1200ms, Red ≥ 1200ms</text>
  
    <text x="190" y="104" text-anchor="end" fill="#c9d1d9" font-size="13" font-weight="400">B: FTS-Only</text>
    <rect x="200" y="80" width="25.714285714285715" height="40" rx="4" fill="#3fb950" opacity="0.7"/>
    <text x="233.71428571428572" y="104" fill="#3fb950" font-size="13" font-weight="600">120ms</text>
    <text x="190" y="152" text-anchor="end" fill="#c9d1d9" font-size="13" font-weight="400">A: Vector-Only</text>
    <rect x="200" y="128" width="113.14285714285715" height="40" rx="4" fill="#3fb950" opacity="0.7"/>
    <text x="321.14285714285717" y="152" fill="#3fb950" font-size="13" font-weight="600">528ms</text>
    <text x="190" y="200" text-anchor="end" fill="#c9d1d9" font-size="13" font-weight="400">K: Adaptive MMR</text>
    <rect x="200" y="176" width="120" height="40" rx="4" fill="#3fb950" opacity="0.7"/>
    <text x="328" y="200" fill="#3fb950" font-size="13" font-weight="600">560ms</text>
    <text x="190" y="248" text-anchor="end" fill="#c9d1d9" font-size="13" font-weight="400">C: Hybrid</text>
    <rect x="200" y="224" width="128.57142857142856" height="40" rx="4" fill="#3fb950" opacity="0.7"/>
    <text x="336.57142857142856" y="248" fill="#3fb950" font-size="13" font-weight="600">600ms</text>
    <text x="190" y="296" text-anchor="end" fill="#c9d1d9" font-size="13" font-weight="400">I: Adaptive Hybrid</text>
    <rect x="200" y="272" width="145.71428571428572" height="40" rx="4" fill="#3fb950" opacity="0.7"/>
    <text x="353.7142857142857" y="296" fill="#3fb950" font-size="13" font-weight="600">680ms</text>
    <text x="190" y="344" text-anchor="end" fill="#c9d1d9" font-size="13" font-weight="700">GATE-A: Hard Gate</text>
    <rect x="200" y="320" width="156.85714285714286" height="40" rx="4" fill="#3fb950" opacity="1"/>
    <text x="364.8571428571429" y="344" fill="#3fb950" font-size="13" font-weight="600">732ms</text>
    <text x="190" y="392" text-anchor="end" fill="#c9d1d9" font-size="13" font-weight="400">GATE-D: Soft+RRF</text>
    <rect x="200" y="368" width="302.7857142857143" height="40" rx="4" fill="#f85149" opacity="0.7"/>
    <text x="510.7857142857143" y="392" fill="#f85149" font-size="13" font-weight="600">1413ms</text>
    <text x="190" y="440" text-anchor="end" fill="#c9d1d9" font-size="13" font-weight="400">RRF-D: k=20</text>
    <rect x="200" y="416" width="311.14285714285717" height="40" rx="4" fill="#f85149" opacity="0.7"/>
    <text x="519.1428571428571" y="440" fill="#f85149" font-size="13" font-weight="600">1452ms</text>
    <text x="190" y="488" text-anchor="end" fill="#c9d1d9" font-size="13" font-weight="400">U: Logit α=0.4 ★</text>
    <rect x="200" y="464" width="321.42857142857144" height="40" rx="4" fill="#f85149" opacity="0.7"/>
    <text x="529.4285714285714" y="488" fill="#f85149" font-size="13" font-weight="600">1500ms</text>
    <text x="190" y="536" text-anchor="end" fill="#c9d1d9" font-size="13" font-weight="400">V: Logit α=0.6</text>
    <rect x="200" y="512" width="321.42857142857144" height="40" rx="4" fill="#f85149" opacity="0.7"/>
    <text x="529.4285714285714" y="536" fill="#f85149" font-size="13" font-weight="600">1500ms</text>
    <text x="190" y="584" text-anchor="end" fill="#c9d1d9" font-size="13" font-weight="400">N: Logit α=0.5</text>
    <rect x="200" y="560" width="321.42857142857144" height="40" rx="4" fill="#f85149" opacity="0.7"/>
    <text x="529.4285714285714" y="584" fill="#f85149" font-size="13" font-weight="600">1500ms</text>
    <text x="190" y="632" text-anchor="end" fill="#c9d1d9" font-size="13" font-weight="400">P: Full Adaptive</text>
    <rect x="200" y="608" width="338.57142857142856" height="40" rx="4" fill="#f85149" opacity="0.7"/>
    <text x="546.5714285714286" y="632" fill="#f85149" font-size="13" font-weight="600">1580ms</text>
    <text x="190" y="680" text-anchor="end" fill="#c9d1d9" font-size="13" font-weight="400">D: Full Pipeline</text>
    <rect x="200" y="656" width="338.57142857142856" height="40" rx="4" fill="#f85149" opacity="0.7"/>
    <text x="546.5714285714286" y="680" fill="#f85149" font-size="13" font-weight="600">1580ms</text>
    <text x="190" y="728" text-anchor="end" fill="#c9d1d9" font-size="13" font-weight="400">H: Vec→Rerank</text>
    <rect x="200" y="704" width="353.57142857142856" height="40" rx="4" fill="#f85149" opacity="0.7"/>
    <text x="561.5714285714286" y="728" fill="#f85149" font-size="13" font-weight="600">1650ms</text>
    <text x="190" y="776" text-anchor="end" fill="#c9d1d9" font-size="13" font-weight="400">MQ-C: Multi-Query</text>
    <rect x="200" y="752" width="471.42857142857144" height="40" rx="4" fill="#f85149" opacity="0.7"/>
    <text x="679.4285714285714" y="776" fill="#f85149" font-size="13" font-weight="600">2200ms</text>
    <text x="190" y="824" text-anchor="end" fill="#c9d1d9" font-size="13" font-weight="400">F: Hybrid+HyDE</text>
    <rect x="200" y="800" width="600" height="40" rx="4" fill="#f85149" opacity="0.7"/>
    <text x="808" y="824" fill="#f85149" font-size="13" font-weight="600">2800ms</text>
</svg>