<?xml version="1.0" encoding="UTF-8"?>
<svg xmlns="http://www.w3.org/2000/svg" viewBox="0 0 1200 532" width="1200" height="532" role="img" aria-label="memory-spark chart">
  <defs><style>text { font-family: -apple-system, BlinkMacSystemFont, 'Segoe UI', sans-serif; }</style></defs>
  <rect width="1200" height="532" fill="#0d1117"/>
  <rect x="10" y="10" width="1180" height="512" rx="12" fill="#161b22" stroke="#30363d"/>
  <text x="40" y="48" fill="#c9d1d9" font-size="24" font-weight="700">BEIR SciFact — Mean Query Latency</text>
  <text x="40" y="70" fill="#8b949e" font-size="14">Lower is better. Green &lt; 800ms, Yellow &lt; 1200ms, Red ≥ 1200ms</text>
  
    <text x="190" y="104" text-anchor="end" fill="#c9d1d9" font-size="13" font-weight="400">B: FTS-Only</text>
    <rect x="200" y="80" width="43.63636363636363" height="40" rx="4" fill="#3fb950" opacity="0.7"/>
    <text x="251.63636363636363" y="104" fill="#3fb950" font-size="13" font-weight="600">120ms</text>
    <text x="190" y="152" text-anchor="end" fill="#c9d1d9" font-size="13" font-weight="400">A: Vector-Only</text>
    <rect x="200" y="128" width="192" height="40" rx="4" fill="#3fb950" opacity="0.7"/>
    <text x="400" y="152" fill="#3fb950" font-size="13" font-weight="600">528ms</text>
    <text x="190" y="200" text-anchor="end" fill="#c9d1d9" font-size="13" font-weight="400">E: Hybrid (Static RRF)</text>
    <rect x="200" y="176" width="247.27272727272725" height="40" rx="4" fill="#3fb950" opacity="0.7"/>
    <text x="455.27272727272725" y="200" fill="#3fb950" font-size="13" font-weight="600">680ms</text>
    <text x="190" y="248" text-anchor="end" fill="#c9d1d9" font-size="13" font-weight="700">GATE-A: Hard</text>
    <rect x="200" y="224" width="266.1818181818182" height="40" rx="4" fill="#3fb950" opacity="1"/>
    <text x="474.1818181818182" y="248" fill="#3fb950" font-size="13" font-weight="600">732ms</text>
    <text x="190" y="296" text-anchor="end" fill="#c9d1d9" font-size="13" font-weight="400">GATE-D: Soft+RRF</text>
    <rect x="200" y="272" width="513.8181818181818" height="40" rx="4" fill="#f85149" opacity="0.7"/>
    <text x="721.8181818181818" y="296" fill="#f85149" font-size="13" font-weight="600">1413ms</text>
    <text x="190" y="344" text-anchor="end" fill="#c9d1d9" font-size="13" font-weight="400">RRF-D: k=20</text>
    <rect x="200" y="320" width="528" height="40" rx="4" fill="#f85149" opacity="0.7"/>
    <text x="736" y="344" fill="#f85149" font-size="13" font-weight="600">1452ms</text>
    <text x="190" y="392" text-anchor="end" fill="#c9d1d9" font-size="13" font-weight="400">RRF-A: k=60</text>
    <rect x="200" y="368" width="560" height="40" rx="4" fill="#f85149" opacity="0.7"/>
    <text x="768" y="392" fill="#f85149" font-size="13" font-weight="600">1540ms</text>
    <text x="190" y="440" text-anchor="end" fill="#c9d1d9" font-size="13" font-weight="400">G: Full Pipeline</text>
    <rect x="200" y="416" width="574.5454545454545" height="40" rx="4" fill="#f85149" opacity="0.7"/>
    <text x="782.5454545454545" y="440" fill="#f85149" font-size="13" font-weight="600">1580ms</text>
    <text x="190" y="488" text-anchor="end" fill="#c9d1d9" font-size="13" font-weight="400">H: Vec→Rerank</text>
    <rect x="200" y="464" width="600" height="40" rx="4" fill="#f85149" opacity="0.7"/>
    <text x="808" y="488" fill="#f85149" font-size="13" font-weight="600">1650ms</text>
</svg>