<?xml version="1.0" encoding="UTF-8"?>
<svg xmlns="http://www.w3.org/2000/svg" viewBox="0 0 1200 580" width="1200" height="580" role="img" aria-label="memory-spark chart">
  <defs>
    <style>
      text { font-family: -apple-system, BlinkMacSystemFont, 'Segoe UI', sans-serif; }
    </style>
  </defs>
  <rect x="0" y="0" width="1200" height="580" fill="#0d1117"/>
  <rect x="12" y="12" width="1176" height="556" rx="12" fill="#161b22" stroke="#30363d"/>
  
    <text x="40" y="58" fill="#c9d1d9" font-size="30" font-weight="700">Recall@K: Full Pipeline vs Vanilla</text>
    <text x="40" y="84" fill="#8b949e" font-size="16">Coverage improves at every cutoff with hybrid reranked retrieval</text>
    
      <line x1="90" x2="1120" y1="510" y2="510" stroke="#30363d"/>
      <text x="80" y="515" fill="#8b949e" text-anchor="end" font-size="13">0.00</text>
    

      <line x1="90" x2="1120" y1="405" y2="405" stroke="#30363d"/>
      <text x="80" y="410" fill="#8b949e" text-anchor="end" font-size="13">0.25</text>
    

      <line x1="90" x2="1120" y1="300" y2="300" stroke="#30363d"/>
      <text x="80" y="305" fill="#8b949e" text-anchor="end" font-size="13">0.50</text>
    

      <line x1="90" x2="1120" y1="195" y2="195" stroke="#30363d"/>
      <text x="80" y="200" fill="#8b949e" text-anchor="end" font-size="13">0.75</text>
    

      <line x1="90" x2="1120" y1="90" y2="90" stroke="#30363d"/>
      <text x="80" y="95" fill="#8b949e" text-anchor="end" font-size="13">1.00</text>
    
    <text x="90" y="538" fill="#8b949e" text-anchor="middle" font-size="14">1</text>
<text x="433.3333333333333" y="538" fill="#8b949e" text-anchor="middle" font-size="14">3</text>
<text x="776.6666666666666" y="538" fill="#8b949e" text-anchor="middle" font-size="14">5</text>
<text x="1120" y="538" fill="#8b949e" text-anchor="middle" font-size="14">10</text>
    <path d="M90.00 275.50 L433.33 161.17 L776.67 130.83 L1120.00 120.33" fill="none" stroke="#3fb950" stroke-width="3"/><circle cx="90" cy="275.5" r="5" fill="#3fb950"><title>K=1 0.558</title></circle>
<circle cx="433.3333333333333" cy="161.16666666666669" r="5" fill="#3fb950"><title>K=3 0.831</title></circle>
<circle cx="776.6666666666666" cy="130.83333333333331" r="5" fill="#3fb950"><title>K=5 0.903</title></circle>
<circle cx="1120" cy="120.33333333333337" r="5" fill="#3fb950"><title>K=10 0.928</title></circle>
    <path d="M90.00 472.67 L433.33 417.83 L776.67 391.00 L1120.00 281.33" fill="none" stroke="#f85149" stroke-width="3"/><circle cx="90" cy="472.6666666666667" r="5" fill="#f85149"><title>K=1 0.089</title></circle>
<circle cx="433.3333333333333" cy="417.8333333333333" r="5" fill="#f85149"><title>K=3 0.219</title></circle>
<circle cx="776.6666666666666" cy="391" r="5" fill="#f85149"><title>K=5 0.283</title></circle>
<circle cx="1120" cy="281.33333333333337" r="5" fill="#f85149"><title>K=10 0.544</title></circle>
    <text x="980" y="106" fill="#3fb950" font-size="16">● Full Pipeline</text>
    <text x="980" y="130" fill="#f85149" font-size="16">● Vanilla Retrieval</text>
    <text x="605" y="564" fill="#8b949e" text-anchor="middle" font-size="14">K</text>
    <text transform="translate(24 300) rotate(-90)" fill="#8b949e" text-anchor="middle" font-size="14">Recall</text>
    
</svg>