<?xml version="1.0" encoding="UTF-8"?>
<svg xmlns="http://www.w3.org/2000/svg" viewBox="0 0 1200 500" width="1200" height="500" role="img" aria-label="memory-spark chart">
  <defs><style>text { font-family: -apple-system, BlinkMacSystemFont, 'Segoe UI', sans-serif; }</style></defs>
  <rect width="1200" height="500" fill="#0d1117"/>
  <rect x="10" y="10" width="1180" height="480" rx="12" fill="#161b22" stroke="#30363d"/>
  <text x="40" y="48" fill="#c9d1d9" font-size="24" font-weight="700">Temporal Decay Function</text>
  <text x="40" y="70" fill="#8b949e" font-size="14">w(t) = 0.8 + 0.2 · exp(−0.03t) — 80% floor, gentle decay</text>

  <!-- Grid -->
  <line x1="100" y1="80" x2="100" y2="430" stroke="#30363d"/>
  <line x1="100" y1="430" x2="1140" y2="430" stroke="#30363d"/>

  <!-- Floor line -->
  <line x1="100" y1="371.7" x2="1140" y2="371.7" stroke="#f85149" stroke-dasharray="6" opacity="0.5"/>
  <text x="1145" y="371.7" fill="#f85149" font-size="12">floor: 0.8</text>

  <!-- Y-axis labels -->
  <text x="90" y="85" text-anchor="end" fill="#8b949e" font-size="12">1.05</text>
  <text x="90" y="255.0" text-anchor="end" fill="#8b949e" font-size="12">0.90</text>
  <text x="90" y="435" text-anchor="end" fill="#8b949e" font-size="12">0.75</text>

  <!-- X-axis label -->
  <text x="620.0" y="480" text-anchor="middle" fill="#8b949e" font-size="14">Age (days)</text>

  <!-- Curve -->
  <polyline points="100.0,138.3 105.7,151.9 111.4,164.7 117.1,176.8 122.8,188.1 128.5,198.8 134.2,208.9 139.9,218.4 145.6,227.3 151.3,235.7 157.0,243.6 162.7,251.1 168.4,258.1 174.1,264.7 179.8,270.9 185.5,276.8 191.2,282.3 196.9,287.5 202.6,292.4 208.3,297.0 214.0,301.4 219.7,305.5 225.4,309.3 231.1,313.0 236.8,316.4 242.5,319.6 248.2,322.6 253.9,325.5 259.6,328.2 265.3,330.7 271.0,333.1 276.7,335.3 282.4,337.5 288.1,339.5 293.8,341.3 299.5,343.1 305.2,344.8 310.8,346.3 316.5,347.8 322.2,349.2 327.9,350.5 333.6,351.7 339.3,352.9 345.0,354.0 350.7,355.0 356.4,356.0 362.1,356.9 367.8,357.8 373.5,358.6 379.2,359.3 384.9,360.0 390.6,360.7 396.3,361.4 402.0,362.0 407.7,362.5 413.4,363.1 419.1,363.6 424.8,364.0 430.5,364.5 436.2,364.9 441.9,365.3 447.6,365.7 453.3,366.0 459.0,366.3 464.7,366.7 470.4,366.9 476.1,367.2 481.8,367.5 487.5,367.7 493.2,368.0 498.9,368.2 504.6,368.4 510.3,368.6 516.0,368.7 521.7,368.9 527.4,369.1 533.1,369.2 538.8,369.4 544.5,369.5 550.2,369.6 555.9,369.7 561.6,369.9 567.3,370.0 573.0,370.1 578.7,370.2 584.4,370.2 590.1,370.3 595.8,370.4 601.5,370.5 607.2,370.5 612.9,370.6 618.6,370.7 624.3,370.7 630.0,370.8 635.7,370.8 641.4,370.9 647.1,370.9 652.8,371.0 658.5,371.0 664.2,371.1 669.9,371.1 675.6,371.1 681.3,371.2 687.0,371.2 692.7,371.2 698.4,371.2 704.1,371.3 709.8,371.3 715.5,371.3 721.2,371.3 726.8,371.3 732.5,371.4 738.2,371.4 743.9,371.4 749.6,371.4 755.3,371.4 761.0,371.4 766.7,371.5 772.4,371.5 778.1,371.5 783.8,371.5 789.5,371.5 795.2,371.5 800.9,371.5 806.6,371.5 812.3,371.5 818.0,371.5 823.7,371.6 829.4,371.6 835.1,371.6 840.8,371.6 846.5,371.6 852.2,371.6 857.9,371.6 863.6,371.6 869.3,371.6 875.0,371.6 880.7,371.6 886.4,371.6 892.1,371.6 897.8,371.6 903.5,371.6 909.2,371.6 914.9,371.6 920.6,371.6 926.3,371.6 932.0,371.6 937.7,371.6 943.4,371.6 949.1,371.6 954.8,371.6 960.5,371.6 966.2,371.6 971.9,371.6 977.6,371.6 983.3,371.6 989.0,371.6 994.7,371.6 1000.4,371.6 1006.1,371.6 1011.8,371.7 1017.5,371.7 1023.2,371.7 1028.9,371.7 1034.6,371.7 1040.3,371.7 1046.0,371.7 1051.7,371.7 1057.4,371.7 1063.1,371.7 1068.8,371.7 1074.5,371.7 1080.2,371.7 1085.9,371.7 1091.6,371.7 1097.3,371.7 1103.0,371.7 1108.7,371.7 1114.4,371.7 1120.1,371.7 1125.8,371.7 1131.5,371.7 1137.2,371.7" fill="none" stroke="#58a6ff" stroke-width="3"/>

  <!-- Key points -->
  
    <circle cx="100.0" cy="138.3" r="5" fill="#3fb950"/>
    <text x="100.0" y="126.3" text-anchor="middle" fill="#3fb950" font-size="12" font-weight="600">1.00</text>
    <text x="100.0" y="158.3" text-anchor="middle" fill="#8b949e" font-size="11">0d</text>
    <circle cx="119.9" cy="182.5" r="5" fill="#3fb950"/>
    <text x="119.9" y="170.5" text-anchor="middle" fill="#3fb950" font-size="12" font-weight="600">0.96</text>
    <text x="119.9" y="202.5" text-anchor="middle" fill="#8b949e" font-size="11">7d</text>
    <circle cx="185.5" cy="276.8" r="5" fill="#3fb950"/>
    <text x="185.5" y="264.8" text-anchor="middle" fill="#3fb950" font-size="12" font-weight="600">0.89</text>
    <text x="185.5" y="296.8" text-anchor="middle" fill="#8b949e" font-size="11">30d</text>
    <circle cx="356.4" cy="356.0" r="5" fill="#3fb950"/>
    <text x="356.4" y="344.0" text-anchor="middle" fill="#3fb950" font-size="12" font-weight="600">0.81</text>
    <text x="356.4" y="376.0" text-anchor="middle" fill="#8b949e" font-size="11">90d</text>
    <circle cx="1140.0" cy="371.7" r="5" fill="#3fb950"/>
    <text x="1140.0" y="359.7" text-anchor="middle" fill="#3fb950" font-size="12" font-weight="600">0.80 (floor)</text>
    <text x="1140.0" y="391.7" text-anchor="middle" fill="#8b949e" font-size="11">365d</text>
</svg>