<?xml version="1.0" encoding="UTF-8"?>
<svg xmlns="http://www.w3.org/2000/svg" viewBox="0 0 1100 520" width="1100" height="520" role="img" aria-label="memory-spark chart">
  <defs>
    <style>
      text { font-family: -apple-system, BlinkMacSystemFont, 'Segoe UI', sans-serif; }
    </style>
  </defs>
  <rect x="0" y="0" width="1100" height="520" fill="#0d1117"/>
  <rect x="12" y="12" width="1076" height="496" rx="12" fill="#161b22" stroke="#30363d"/>
  
    <text x="36" y="54" fill="#c9d1d9" font-size="30" font-weight="700">Temporal Decay Curve</text>
    <text x="36" y="80" fill="#8b949e" font-size="16">score factor = 0.8 + 0.2 * exp(-0.03 * ageDays)</text>
    
      <line x1="90" x2="1040" y1="156" y2="156" stroke="#30363d"/>
      <text x="80" y="161" fill="#8b949e" text-anchor="end" font-size="13">0.80</text>
    

      <line x1="90" x2="1040" y1="137" y2="137" stroke="#30363d"/>
      <text x="80" y="142" fill="#8b949e" text-anchor="end" font-size="13">0.85</text>
    

      <line x1="90" x2="1040" y1="118" y2="118" stroke="#30363d"/>
      <text x="80" y="123" fill="#8b949e" text-anchor="end" font-size="13">0.90</text>
    

      <line x1="90" x2="1040" y1="99.00000000000001" y2="99.00000000000001" stroke="#30363d"/>
      <text x="80" y="104.00000000000001" fill="#8b949e" text-anchor="end" font-size="13">0.95</text>
    

      <line x1="90" x2="1040" y1="80" y2="80" stroke="#30363d"/>
      <text x="80" y="85" fill="#8b949e" text-anchor="end" font-size="13">1.00</text>
    
    <path d="M90.00 80.00 L92.60 82.25 L95.21 84.43 L97.81 86.54 L100.41 88.59 L103.01 90.59 L105.62 92.52 L108.22 94.40 L110.82 96.22 L113.42 97.98 L116.03 99.70 L118.63 101.36 L121.23 102.98 L123.84 104.54 L126.44 106.06 L129.04 107.54 L131.64 108.97 L134.25 110.36 L136.85 111.71 L139.45 113.02 L142.05 114.29 L144.66 115.52 L147.26 116.72 L149.86 117.88 L152.47 119.01 L155.07 120.10 L157.67 121.16 L160.27 122.19 L162.88 123.19 L165.48 124.16 L168.08 125.10 L170.68 126.01 L173.29 126.90 L175.89 127.76 L178.49 128.59 L181.10 129.40 L183.70 130.19 L186.30 130.95 L188.90 131.69 L191.51 132.41 L194.11 133.11 L196.71 133.79 L199.32 134.44 L201.92 135.08 L204.52 135.70 L207.12 136.30 L209.73 136.88 L212.33 137.45 L214.93 137.99 L217.53 138.53 L220.14 139.04 L222.74 139.54 L225.34 140.03 L227.95 140.50 L230.55 140.96 L233.15 141.40 L235.75 141.84 L238.36 142.25 L240.96 142.66 L243.56 143.05 L246.16 143.44 L248.77 143.81 L251.37 144.17 L253.97 144.52 L256.58 144.86 L259.18 145.19 L261.78 145.51 L264.38 145.82 L266.99 146.12 L269.59 146.41 L272.19 146.69 L274.79 146.97 L277.40 147.24 L280.00 147.49 L282.60 147.75 L285.21 147.99 L287.81 148.23 L290.41 148.46 L293.01 148.68 L295.62 148.90 L298.22 149.11 L300.82 149.31 L303.42 149.51 L306.03 149.70 L308.63 149.89 L311.23 150.07 L313.84 150.24 L316.44 150.41 L319.04 150.58 L321.64 150.74 L324.25 150.89 L326.85 151.04 L329.45 151.19 L332.05 151.33 L334.66 151.47 L337.26 151.60 L339.86 151.73 L342.47 151.86 L345.07 151.98 L347.67 152.10 L350.27 152.22 L352.88 152.33 L355.48 152.44 L358.08 152.54 L360.68 152.64 L363.29 152.74 L365.89 152.84 L368.49 152.93 L371.10 153.02 L373.70 153.11 L376.30 153.20 L378.90 153.28 L381.51 153.36 L384.11 153.44 L386.71 153.51 L389.32 153.59 L391.92 153.66 L394.52 153.73 L397.12 153.79 L399.73 153.86 L402.33 153.92 L404.93 153.98 L407.53 154.04 L410.14 154.10 L412.74 154.16 L415.34 154.21 L417.95 154.27 L420.55 154.32 L423.15 154.37 L425.75 154.41 L428.36 154.46 L430.96 154.51 L433.56 154.55 L436.16 154.59 L438.77 154.64 L441.37 154.68 L443.97 154.72 L446.58 154.75 L449.18 154.79 L451.78 154.83 L454.38 154.86 L456.99 154.89 L459.59 154.93 L462.19 154.96 L464.79 154.99 L467.40 155.02 L470.00 155.05 L472.60 155.08 L475.21 155.10 L477.81 155.13 L480.41 155.16 L483.01 155.18 L485.62 155.20 L488.22 155.23 L490.82 155.25 L493.42 155.27 L496.03 155.29 L498.63 155.32 L501.23 155.34 L503.84 155.36 L506.44 155.37 L509.04 155.39 L511.64 155.41 L514.25 155.43 L516.85 155.45 L519.45 155.46 L522.05 155.48 L524.66 155.49 L527.26 155.51 L529.86 155.52 L532.47 155.54 L535.07 155.55 L537.67 155.56 L540.27 155.58 L542.88 155.59 L545.48 155.60 L548.08 155.61 L550.68 155.62 L553.29 155.64 L555.89 155.65 L558.49 155.66 L561.10 155.67 L563.70 155.68 L566.30 155.69 L568.90 155.70 L571.51 155.70 L574.11 155.71 L576.71 155.72 L579.32 155.73 L581.92 155.74 L584.52 155.75 L587.12 155.75 L589.73 155.76 L592.33 155.77 L594.93 155.77 L597.53 155.78 L600.14 155.79 L602.74 155.79 L605.34 155.80 L607.95 155.81 L610.55 155.81 L613.15 155.82 L615.75 155.82 L618.36 155.83 L620.96 155.83 L623.56 155.84 L626.16 155.84 L628.77 155.85 L631.37 155.85 L633.97 155.86 L636.58 155.86 L639.18 155.86 L641.78 155.87 L644.38 155.87 L646.99 155.88 L649.59 155.88 L652.19 155.88 L654.79 155.89 L657.40 155.89 L660.00 155.89 L662.60 155.90 L665.21 155.90 L667.81 155.90 L670.41 155.91 L673.01 155.91 L675.62 155.91 L678.22 155.91 L680.82 155.92 L683.42 155.92 L686.03 155.92 L688.63 155.92 L691.23 155.93 L693.84 155.93 L696.44 155.93 L699.04 155.93 L701.64 155.93 L704.25 155.94 L706.85 155.94 L709.45 155.94 L712.05 155.94 L714.66 155.94 L717.26 155.94 L719.86 155.95 L722.47 155.95 L725.07 155.95 L727.67 155.95 L730.27 155.95 L732.88 155.95 L735.48 155.96 L738.08 155.96 L740.68 155.96 L743.29 155.96 L745.89 155.96 L748.49 155.96 L751.10 155.96 L753.70 155.96 L756.30 155.96 L758.90 155.97 L761.51 155.97 L764.11 155.97 L766.71 155.97 L769.32 155.97 L771.92 155.97 L774.52 155.97 L777.12 155.97 L779.73 155.97 L782.33 155.97 L784.93 155.97 L787.53 155.98 L790.14 155.98 L792.74 155.98 L795.34 155.98 L797.95 155.98 L800.55 155.98 L803.15 155.98 L805.75 155.98 L808.36 155.98 L810.96 155.98 L813.56 155.98 L816.16 155.98 L818.77 155.98 L821.37 155.98 L823.97 155.98 L826.58 155.98 L829.18 155.98 L831.78 155.99 L834.38 155.99 L836.99 155.99 L839.59 155.99 L842.19 155.99 L844.79 155.99 L847.40 155.99 L850.00 155.99 L852.60 155.99 L855.21 155.99 L857.81 155.99 L860.41 155.99 L863.01 155.99 L865.62 155.99 L868.22 155.99 L870.82 155.99 L873.42 155.99 L876.03 155.99 L878.63 155.99 L881.23 155.99 L883.84 155.99 L886.44 155.99 L889.04 155.99 L891.64 155.99 L894.25 155.99 L896.85 155.99 L899.45 155.99 L902.05 155.99 L904.66 155.99 L907.26 155.99 L909.86 155.99 L912.47 155.99 L915.07 155.99 L917.67 155.99 L920.27 155.99 L922.88 155.99 L925.48 156.00 L928.08 156.00 L930.68 156.00 L933.29 156.00 L935.89 156.00 L938.49 156.00 L941.10 156.00 L943.70 156.00 L946.30 156.00 L948.90 156.00 L951.51 156.00 L954.11 156.00 L956.71 156.00 L959.32 156.00 L961.92 156.00 L964.52 156.00 L967.12 156.00 L969.73 156.00 L972.33 156.00 L974.93 156.00 L977.53 156.00 L980.14 156.00 L982.74 156.00 L985.34 156.00 L987.95 156.00 L990.55 156.00 L993.15 156.00 L995.75 156.00 L998.36 156.00 L1000.96 156.00 L1003.56 156.00 L1006.16 156.00 L1008.77 156.00 L1011.37 156.00 L1013.97 156.00 L1016.58 156.00 L1019.18 156.00 L1021.78 156.00 L1024.38 156.00 L1026.99 156.00 L1029.59 156.00 L1032.19 156.00 L1034.79 156.00 L1037.40 156.00 L1040.00 156.00" fill="none" stroke="#d29922" stroke-width="3"/>
    
        <circle cx="90" cy="80" r="4" fill="#d29922"/>
        <text x="98" y="72" fill="#c9d1d9" font-size="13">d0: 1.000</text>
      

        <circle cx="108.21917808219177" cy="94.39559730626576" r="4" fill="#d29922"/>
        <text x="116.21917808219177" y="86.39559730626576" fill="#c9d1d9" font-size="13">d7: 0.962</text>
      

        <circle cx="168.08219178082192" cy="125.10070585971442" r="4" fill="#d29922"/>
        <text x="176.08219178082192" y="117.10070585971442" fill="#c9d1d9" font-size="13">d30: 0.881</text>
      

        <circle cx="324.24657534246575" cy="150.892381031779" r="4" fill="#d29922"/>
        <text x="332.24657534246575" y="142.892381031779" fill="#c9d1d9" font-size="13">d90: 0.813</text>
      

        <circle cx="558.4931506849315" cy="155.6567398483614" r="4" fill="#d29922"/>
        <text x="566.4931506849315" y="147.6567398483614" fill="#c9d1d9" font-size="13">d180: 0.801</text>
      

        <circle cx="1040" cy="155.9986655908371" r="4" fill="#d29922"/>
        <text x="1048" y="147.9986655908371" fill="#c9d1d9" font-size="13">d365: 0.800</text>
      
    <text x="565" y="504" fill="#8b949e" text-anchor="middle" font-size="14">Age (days)</text>
    <text transform="translate(26 270) rotate(-90)" fill="#8b949e" text-anchor="middle" font-size="14">Decay Factor</text>
    
</svg>